<svg width="18" height="18" viewBox="0 0 18 18" fill="none" xmlns="http://www.w3.org/2000/svg">
<path d="M16.9895 15.8832L11.7723 10.666C12.5819 9.61935 13.0199 8.33966 13.0199 6.99368C13.0199 5.38252 12.3911 3.87181 11.254 2.73274C10.117 1.59368 8.60225 0.966896 6.99309 0.966896C5.38394 0.966896 3.86921 1.59569 2.73216 2.73274C1.59309 3.8698 0.966309 5.38252 0.966309 6.99368C0.966309 8.60283 1.5951 10.1176 2.73216 11.2546C3.86921 12.3937 5.38193 13.0205 6.99309 13.0205C8.33908 13.0205 9.61676 12.5825 10.6634 11.7749L15.8806 16.9901C15.8959 17.0054 15.9141 17.0176 15.934 17.0258C15.954 17.0341 15.9755 17.0384 15.9971 17.0384C16.0188 17.0384 16.0402 17.0341 16.0602 17.0258C16.0802 17.0176 16.0983 17.0054 16.1136 16.9901L16.9895 16.1162C17.0048 16.1009 17.017 16.0828 17.0253 16.0628C17.0335 16.0428 17.0378 16.0213 17.0378 15.9997C17.0378 15.9781 17.0335 15.9566 17.0253 15.9366C17.017 15.9167 17.0048 15.8985 16.9895 15.8832ZM10.1752 10.1758C9.32345 11.0256 8.19443 11.4937 6.99309 11.4937C5.79176 11.4937 4.66274 11.0256 3.81095 10.1758C2.96117 9.32404 2.49309 8.19502 2.49309 6.99368C2.49309 5.79234 2.96117 4.66132 3.81095 3.81154C4.66274 2.96176 5.79176 2.49368 6.99309 2.49368C8.19443 2.49368 9.32546 2.95975 10.1752 3.81154C11.025 4.66332 11.4931 5.79234 11.4931 6.99368C11.4931 8.19502 11.025 9.32605 10.1752 10.1758Z" fill="black" fill-opacity="0.45"/>
</svg>
