<svg width="36" height="36" viewBox="0 0 36 36" fill="none" xmlns="http://www.w3.org/2000/svg">
<path d="M33.5987 30.0938L18.9737 4.78125C18.7557 4.40508 18.3795 4.21875 17.9998 4.21875C17.6202 4.21875 17.2405 4.40508 17.026 4.78125L2.40103 30.0938C1.9686 30.8461 2.51001 31.7812 3.37485 31.7812H32.6248C33.4897 31.7812 34.0311 30.8461 33.5987 30.0938ZM16.8748 14.625C16.8748 14.4703 17.0014 14.3438 17.1561 14.3438H18.8436C18.9983 14.3438 19.1248 14.4703 19.1248 14.625V21.0938C19.1248 21.2484 18.9983 21.375 18.8436 21.375H17.1561C17.0014 21.375 16.8748 21.2484 16.8748 21.0938V14.625ZM17.9998 27C17.5583 26.991 17.1378 26.8092 16.8287 26.4937C16.5196 26.1783 16.3464 25.7542 16.3464 25.3125C16.3464 24.8708 16.5196 24.4467 16.8287 24.1313C17.1378 23.8158 17.5583 23.634 17.9998 23.625C18.4414 23.634 18.8619 23.8158 19.171 24.1313C19.4801 24.4467 19.6533 24.8708 19.6533 25.3125C19.6533 25.7542 19.4801 26.1783 19.171 26.4937C18.8619 26.8092 18.4414 26.991 17.9998 27Z" fill="#FFAC33" fill-opacity="0.85"/>
</svg>
